<?xml version="1.0" encoding="utf-8"?>
<!-- Generator: Adobe Illustrator 19.2.1, SVG Export Plug-In . SVG Version: 6.00 Build 0)  -->
<!DOCTYPE svg PUBLIC "-//W3C//DTD SVG 1.1//EN" "http://www.w3.org/Graphics/SVG/1.1/DTD/svg11.dtd">
<svg version="1.1" id="Layer_1" xmlns="http://www.w3.org/2000/svg" xmlns:xlink="http://www.w3.org/1999/xlink" x="0px" y="0px"
	 width="20px" height="20px" viewBox="0 0 20 20" style="enable-background:new 0 0 20 20;" xml:space="preserve">
<style type="text/css">
	.st0{fill:#FFFFFF;}
</style>
<path class="st0" d="M12.2,7.3V4.8C12.2,4,11.4,4,11.4,4H7.6c0,0-0.9,0-0.8,0.8v2.6H4.2c0,0-0.8,0-0.8,0.8v5.4
	c0,0.8,0.8,0.8,0.8,0.8h10.5c0,0,0.8,0,0.8-0.8V8.1c0-0.8-0.8-0.8-0.8-0.8H12.2z M7.9,5.2h3.1v2.2H7.9V5.2z"/>
<path class="st0" d="M12.2,7.3V4.8C12.2,4,11.4,4,11.4,4H7.6c0,0-0.9,0-0.8,0.8v2.6H4.2c0,0-0.8,0-0.8,0.8v5.4
	c0,0.8,0.8,0.8,0.8,0.8h10.5c0,0,0.8,0,0.8-0.8V8.1c0-0.8-0.8-0.8-0.8-0.8H12.2z M7.9,5.2h3.1v2.2H7.9V5.2z"/>
<path class="st0" d="M12.2,7.3V4.8C12.2,4,11.4,4,11.4,4H7.6c0,0-0.9,0-0.8,0.8v2.6H4.2c0,0-0.8,0-0.8,0.8v5.4
	c0,0.8,0.8,0.8,0.8,0.8h10.5c0,0,0.8,0,0.8-0.8V8.1c0-0.8-0.8-0.8-0.8-0.8H12.2z M7.9,5.2h3.1v2.2H7.9V5.2z"/>
<path class="st0" d="M12.2,7.3V4.8C12.2,4,11.4,4,11.4,4H7.6c0,0-0.9,0-0.8,0.8v2.6H4.2c0,0-0.8,0-0.8,0.8v5.4
	c0,0.8,0.8,0.8,0.8,0.8h10.5c0,0,0.8,0,0.8-0.8V8.1c0-0.8-0.8-0.8-0.8-0.8H12.2z M7.9,5.2h3.1v2.2H7.9V5.2z"/>
</svg>
